{
  "accessors": [
    {
      "bufferView": 2,
      "componentType": 5126,
      "count": 65532,
      "max": [
        8.2462234497070312,
        6.4014430046081543,
        15.706192970275879
      ],
      "min": [
        -16.759727478027344,
        -34.295337677001953,
        -10.313700675964355
      ],
      "type": "VEC3"
    },
    {
      "bufferView": 2,
      "byteOffset": 786384,
      "componentType": 5126,
      "count": 65532,
      "max": [
        0.90931850671768188,
        0.99993014335632324,
        0.99999785423278809
      ],
      "min": [
        -0.99999874830245972,
        -0.99999725818634033,
        -0.85430657863616943
      ],
      "type": "VEC3"
    },
    {
      "bufferView": 3,
      "componentType": 5126,
      "count": 65532,
      "max": [
        0.98467350006103516,
        0.45670214295387268,
        0.94172155857086182,
        1
      ],
      "min": [
        -0.993244469165802,
        -1,
        -0.90897291898727417,
        -1
      ],
      "type": "VEC4"
    },
    {
      "bufferView": 3,
      "byteOffset": 1048512,
      "componentType": 5126,
      "count": 65532,
      "max": [
        0.75294101238250732,
        0.75294101238250732,
        0.75294101238250732,
        1
      ],
      "min": [
        0.75294101238250732,
        0.75294101238250732,
        0.75294101238250732,
        1
      ],
      "type": "VEC4"
    },
    {
      "bufferView": 1,
      "componentType": 5126,
      "count": 65532,
      "max": [
        0.98377001285552979,
        0.99738401174545288
      ],
      "min": [
        0.0021349999587982893,
        0.047609999775886536
      ],
      "type": "VEC2"
    },
    {
      "bufferView": 0,
      "componentType": 5125,
      "count": 323865,
      "max": [
        65531
      ],
      "min": [
        0
      ],
      "type": "SCALAR"
    },
    {
      "bufferView": 2,
      "byteOffset": 1572768,
      "componentType": 5126,
      "count": 65532,
      "max": [
        8.7248659133911133,
        6.0874600410461426,
        15.554766654968262
      ],
      "min": [
        -15.913108825683594,
        -34.295337677001953,
        -10.200260162353516
      ],
      "type": "VEC3"
    },
    {
      "bufferView": 2,
      "byteOffset": 2359152,
      "componentType": 5126,
      "count": 65532,
      "max": [
        0.86702162027359009,
        0.99868893623352051,
        0.99997168779373169
      ],
      "min": [
        -0.99999922513961792,
        -0.99999725818634033,
        -0.93237930536270142
      ],
      "type": "VEC3"
    },
    {
      "bufferView": 3,
      "byteOffset": 2097024,
      "componentType": 5126,
      "count": 65532,
      "max": [
        0.999500572681427,
        0.39411824941635132,
        0.98870599269866943,
        1
      ],
      "min": [
        -0.99903750419616699,
        -1,
        -0.88912981748580933,
        -1
      ],
      "type": "VEC4"
    },
    {
      "bufferView": 3,
      "byteOffset": 3145536,
      "componentType": 5126,
      "count": 65532,
      "max": [
        0.75294101238250732,
        0.75294101238250732,
        0.75294101238250732,
        1
      ],
      "min": [
        0.75294101238250732,
        0.75294101238250732,
        0.75294101238250732,
        1
      ],
      "type": "VEC4"
    },
    {
      "bufferView": 1,
      "byteOffset": 524256,
      "componentType": 5126,
      "count": 65532,
      "max": [
        0.98649197816848755,
        0.9977719783782959
      ],
      "min": [
        0.0058550001122057438,
        0.082818001508712769
      ],
      "type": "VEC2"
    },
    {
      "bufferView": 0,
      "byteOffset": 1295460,
      "componentType": 5125,
      "count": 319233,
      "max": [
        65531
      ],
      "min": [
        0
      ],
      "type": "SCALAR"
    },
    {
      "bufferView": 2,
      "byteOffset": 3145536,
      "componentType": 5126,
      "count": 61368,
      "max": [
        8.7493810653686523,
        6.4014430046081543,
        15.738370895385742
      ],
      "min": [
        -16.421363830566406,
        -34.23382568359375,
        -10.240598678588867
      ],
      "type": "VEC3"
    },
    {
      "bufferView": 2,
      "byteOffset": 3881952,
      "componentType": 5126,
      "count": 61368,
      "max": [
        0.90931850671768188,
        0.99993014335632324,
        0.99999463558197021
      ],
      "min": [
        -0.99999922513961792,
        -0.99999117851257324,
        -0.94580954313278198
      ],
      "type": "VEC3"
    },
    {
      "bufferView": 3,
      "byteOffset": 4194048,
      "componentType": 5126,
      "count": 61368,
      "max": [
        0.9994349479675293,
        0.40584620833396912,
        0.8673931360244751,
        1
      ],
      "min": [
        -0.99593174457550049,
        -1,
        -0.90897291898727417,
        -1
      ],
      "type": "VEC4"
    },
    {
      "bufferView": 3,
      "byteOffset": 5175936,
      "componentType": 5126,
      "count": 61368,
      "max": [
        0.75294101238250732,
        0.75294101238250732,
        0.75294101238250732,
        1
      ],
      "min": [
        0.75294101238250732,
        0.75294101238250732,
        0.75294101238250732,
        1
      ],
      "type": "VEC4"
    },
    {
      "bufferView": 1,
      "byteOffset": 1048512,
      "componentType": 5126,
      "count": 61368,
      "max": [
        0.98261702060699463,
        0.99802398681640625
      ],
      "min": [
        0.013059999793767929,
        0.055764999240636826
      ],
      "type": "VEC2"
    },
    {
      "bufferView": 0,
      "byteOffset": 2572392,
      "componentType": 5125,
      "count": 224166,
      "max": [
        61367
      ],
      "min": [
        0
      ],
      "type": "SCALAR"
    },
    {
      "bufferView": 2,
      "byteOffset": 4618368,
      "componentType": 5126,
      "count": 19826,
      "max": [
        9.1577234268188477,
        5.0104098320007324,
        12.719385147094727
      ],
      "min": [
        -15.192836761474609,
        -34.237560272216797,
        -8.4121227264404297
      ],
      "type": "VEC3"
    },
    {
      "bufferView": 2,
      "byteOffset": 4856280,
      "componentType": 5126,
      "count": 19826,
      "max": [
        0.47838807106018066,
        0.98458307981491089,
        0.99999880790710449
      ],
      "min": [
        -0.99999946355819702,
        -0.99903559684753418,
        -0.93743181228637695
      ],
      "type": "VEC3"
    },
    {
      "bufferView": 3,
      "byteOffset": 6157824,
      "componentType": 5126,
      "count": 19826,
      "max": [
        0.91961759328842163,
        0.26123008131980896,
        0.99592852592468262,
        1
      ],
      "min": [
        -0.91370463371276855,
        -0.99999713897705078,
        -0.99393212795257568,
        -1
      ],
      "type": "VEC4"
    },
    {
      "bufferView": 3,
      "byteOffset": 6475040,
      "componentType": 5126,
      "count": 19826,
      "max": [
        0.75294101238250732,
        0.75294101238250732,
        0.75294101238250732,
        1
      ],
      "min": [
        0.75294101238250732,
        0.75294101238250732,
        0.75294101238250732,
        1
      ],
      "type": "VEC4"
    },
    {
      "bufferView": 1,
      "byteOffset": 1539456,
      "componentType": 5126,
      "count": 19826,
      "max": [
        0.97756201028823853,
        0.98433601856231689
      ],
      "min": [
        0.0019799999427050352,
        0.10544899851083755
      ],
      "type": "VEC2"
    },
    {
      "bufferView": 0,
      "byteOffset": 3469056,
      "componentType": 5125,
      "count": 115980,
      "max": [
        19825
      ],
      "min": [
        0
      ],
      "type": "SCALAR"
    },
    {
      "bufferView": 2,
      "byteOffset": 5094192,
      "componentType": 5126,
      "count": 5,
      "max": [
        -1.4233629703521729,
        -34.104469299316406,
        5.8798699378967285
      ],
      "min": [
        -1.4413540363311768,
        -34.119586944580078,
        5.8592710494995117
      ],
      "type": "VEC3"
    },
    {
      "bufferView": 2,
      "byteOffset": 5094252,
      "componentType": 5126,
      "count": 5,
      "max": [
        0.7486344575881958,
        0.31124469637870789,
        0.74124127626419067
      ],
      "min": [
        -0.74744534492492676,
        -0.12458924949169159,
        -0.65164119005203247
      ],
      "type": "VEC3"
    },
    {
      "bufferView": 3,
      "byteOffset": 6792256,
      "componentType": 5126,
      "count": 5,
      "max": [
        0,
        0,
        0,
        1
      ],
      "min": [
        0,
        0,
        0,
        1
      ],
      "type": "VEC4"
    },
    {
      "bufferView": 3,
      "byteOffset": 6792336,
      "componentType": 5126,
      "count": 5,
      "max": [
        0.75294101238250732,
        0.75294101238250732,
        0.75294101238250732,
        1
      ],
      "min": [
        0.75294101238250732,
        0.75294101238250732,
        0.75294101238250732,
        1
      ],
      "type": "VEC4"
    },
    {
      "bufferView": 0,
      "byteOffset": 3932976,
      "componentType": 5125,
      "count": 9,
      "max": [
        4
      ],
      "min": [
        0
      ],
      "type": "SCALAR"
    }
  ],
  "asset": {
    "extras": {
      "author": "MGD Films (https://sketchfab.com/magadan)",
      "license": "CC-BY-4.0 (http://creativecommons.org/licenses/by/4.0/)",
      "source": "https://sketchfab.com/models/0465ac4c65754a7b86a7c426a2bf71a9",
      "title": "3D Scan - England Door (frame)"
    },
    "generator": "Sketchfab-3.18.2",
    "version": "2.0"
  },
  "bufferViews": [
    {
      "buffer": 0,
      "byteLength": 3933012,
      "byteOffset": 0,
      "name": "floatBufferViews",
      "target": 34963
    },
    {
      "buffer": 0,
      "byteLength": 1698064,
      "byteOffset": 3933012,
      "byteStride": 8,
      "name": "floatBufferViews",
      "target": 34962
    },
    {
      "buffer": 0,
      "byteLength": 5094312,
      "byteOffset": 5631076,
      "byteStride": 12,
      "name": "floatBufferViews",
      "target": 34962
    },
    {
      "buffer": 0,
      "byteLength": 6792416,
      "byteOffset": 10725388,
      "byteStride": 16,
      "name": "floatBufferViews",
      "target": 34962
    }
  ],
  "buffers": [
    {
      "byteLength": 17517804,
      "uri": "scene.bin"
    }
  ],
  "extensionsRequired": [
    "KHR_materials_pbrSpecularGlossiness"
  ],
  "extensionsUsed": [
    "KHR_materials_pbrSpecularGlossiness"
  ],
  "images": [
    {
      "uri": "textures/material_1_diffuse.jpeg"
    },
    {
      "uri": "textures/material_0_diffuse.jpeg"
    },
    {
      "uri": "textures/material_0_normal.jpeg"
    }
  ],
  "materials": [
    {
      "doubleSided": true,
      "emissiveFactor": [
        0,
        0,
        0
      ],
      "extensions": {
        "KHR_materials_pbrSpecularGlossiness": {
          "diffuseFactor": [
            1,
            1,
            1,
            1
          ],
          "diffuseTexture": {
            "index": 1,
            "texCoord": 0
          },
          "glossinessFactor": 0.20000000000000001,
          "specularFactor": [
            0,
            0,
            0
          ]
        }
      },
      "name": "material_0",
      "normalTexture": {
        "index": 2,
        "scale": 1,
        "texCoord": 0
      }
    },
    {
      "doubleSided": true,
      "emissiveFactor": [
        0,
        0,
        0
      ],
      "extensions": {
        "KHR_materials_pbrSpecularGlossiness": {
          "diffuseFactor": [
            1,
            1,
            1,
            1
          ],
          "diffuseTexture": {
            "index": 0,
            "texCoord": 0
          },
          "glossinessFactor": 0.20000000000000001,
          "specularFactor": [
            0,
            0,
            0
          ]
        }
      },
      "name": "material_1"
    },
    {
      "doubleSided": true,
      "emissiveFactor": [
        0,
        0,
        0
      ],
      "extensions": {
        "KHR_materials_pbrSpecularGlossiness": {
          "diffuseFactor": [
            1,
            1,
            1,
            1
          ],
          "glossinessFactor": 0.20000000000000001,
          "specularFactor": [
            0,
            0,
            0
          ]
        }
      },
      "name": "material_2"
    }
  ],
  "meshes": [
    {
      "primitives": [
        {
          "attributes": {
            "COLOR_0": 3,
            "NORMAL": 1,
            "POSITION": 0,
            "TANGENT": 2,
            "TEXCOORD_0": 4
          },
          "indices": 5,
          "material": 0,
          "mode": 4
        }
      ]
    },
    {
      "primitives": [
        {
          "attributes": {
            "COLOR_0": 9,
            "NORMAL": 7,
            "POSITION": 6,
            "TANGENT": 8,
            "TEXCOORD_0": 10
          },
          "indices": 11,
          "material": 0,
          "mode": 4
        }
      ]
    },
    {
      "primitives": [
        {
          "attributes": {
            "COLOR_0": 15,
            "NORMAL": 13,
            "POSITION": 12,
            "TANGENT": 14,
            "TEXCOORD_0": 16
          },
          "indices": 17,
          "material": 0,
          "mode": 4
        }
      ]
    },
    {
      "primitives": [
        {
          "attributes": {
            "COLOR_0": 21,
            "NORMAL": 19,
            "POSITION": 18,
            "TANGENT": 20,
            "TEXCOORD_0": 22
          },
          "indices": 23,
          "material": 1,
          "mode": 4
        }
      ]
    },
    {
      "primitives": [
        {
          "attributes": {
            "COLOR_0": 27,
            "NORMAL": 25,
            "POSITION": 24,
            "TANGENT": 26
          },
          "indices": 28,
          "material": 2,
          "mode": 4
        }
      ]
    }
  ],
  "nodes": [
    {
      "children": [
        1
      ],
      "name": "RootNode (gltf orientation matrix)",
      "rotation": [
        -0.70710678118654746,
        -0,
        -0,
        0.70710678118654757
      ]
    },
    {
      "children": [
        2
      ],
      "matrix": [
        0,
        1,
        0,
        0,
        -0.027451910078525543,
        0,
        -0.99962311983108521,
        0,
        -0.99962311983108521,
        0,
        0.027451910078525543,
        0,
        -1.7018724679946899,
        -9.8850574493408203,
        -11.27309513092041,
        1
      ],
      "name": "RootNode (model correction matrix)"
    },
    {
      "children": [
        3,
        4,
        5,
        6,
        7
      ],
      "name": "mesh.obj.cleaner.gles"
    },
    {
      "mesh": 0,
      "name": ""
    },
    {
      "mesh": 1,
      "name": ""
    },
    {
      "mesh": 2,
      "name": ""
    },
    {
      "mesh": 3,
      "name": ""
    },
    {
      "mesh": 4,
      "name": ""
    }
  ],
  "samplers": [
    {
      "magFilter": 9729,
      "minFilter": 9987,
      "wrapS": 10497,
      "wrapT": 10497
    }
  ],
  "scene": 0,
  "scenes": [
    {
      "name": "OSG_Scene",
      "nodes": [
        0
      ]
    }
  ],
  "textures": [
    {
      "sampler": 0,
      "source": 0
    },
    {
      "sampler": 0,
      "source": 1
    },
    {
      "sampler": 0,
      "source": 2
    }
  ]
}

