{
  "accessors": [
    {
      "bufferView": 2,
      "componentType": 5126,
      "count": 124,
      "max": [
        17.210353851318359,
        149.00991821289062,
        17.210353851318359
      ],
      "min": [
        -17.210353851318359,
        102.09125518798828,
        -17.210353851318359
      ],
      "type": "VEC3"
    },
    {
      "bufferView": 2,
      "byteOffset": 1488,
      "componentType": 5126,
      "count": 124,
      "max": [
        1,
        1,
        1
      ],
      "min": [
        -1,
        0,
        -1
      ],
      "type": "VEC3"
    },
    {
      "bufferView": 3,
      "componentType": 5126,
      "count": 124,
      "max": [
        0,
        0,
        0,
        1
      ],
      "min": [
        0,
        0,
        0,
        1
      ],
      "type": "VEC4"
    },
    {
      "bufferView": 0,
      "componentType": 5125,
      "count": 510,
      "max": [
        123
      ],
      "min": [
        0
      ],
      "type": "SCALAR"
    },
    {
      "bufferView": 2,
      "byteOffset": 2976,
      "componentType": 5126,
      "count": 1061,
      "max": [
        42.419960021972656,
        102.09125518798828,
        42.325321197509766
      ],
      "min": [
        -42.419960021972656,
        -166.89126586914062,
        -42.419960021972656
      ],
      "type": "VEC3"
    },
    {
      "bufferView": 2,
      "byteOffset": 15708,
      "componentType": 5126,
      "count": 1061,
      "max": [
        1,
        0.66133499145507812,
        1
      ],
      "min": [
        -1,
        -1,
        -1
      ],
      "type": "VEC3"
    },
    {
      "bufferView": 3,
      "byteOffset": 1984,
      "componentType": 5126,
      "count": 1061,
      "max": [
        0,
        0,
        0,
        1
      ],
      "min": [
        0,
        0,
        0,
        1
      ],
      "type": "VEC4"
    },
    {
      "bufferView": 0,
      "byteOffset": 2040,
      "componentType": 5125,
      "count": 5772,
      "max": [
        1060
      ],
      "min": [
        0
      ],
      "type": "SCALAR"
    },
    {
      "bufferView": 2,
      "byteOffset": 28440,
      "componentType": 5126,
      "count": 227,
      "max": [
        41.800037384033203,
        149,
        42.426185607910156
      ],
      "min": [
        -41.800037384033203,
        -166.61582946777344,
        -41.800037384033203
      ],
      "type": "VEC3"
    },
    {
      "bufferView": 2,
      "byteOffset": 31164,
      "componentType": 5126,
      "count": 227,
      "max": [
        0.49754297733306885,
        1,
        1
      ],
      "min": [
        -0.4975217878818512,
        -0.99999725818634033,
        -1
      ],
      "type": "VEC3"
    },
    {
      "bufferView": 3,
      "byteOffset": 18960,
      "componentType": 5126,
      "count": 227,
      "max": [
        0,
        0,
        0,
        1
      ],
      "min": [
        0,
        0,
        0,
        1
      ],
      "type": "VEC4"
    },
    {
      "bufferView": 0,
      "byteOffset": 25128,
      "componentType": 5125,
      "count": 564,
      "max": [
        226
      ],
      "min": [
        0
      ],
      "type": "SCALAR"
    },
    {
      "bufferView": 2,
      "byteOffset": 33888,
      "componentType": 5126,
      "count": 1012,
      "max": [
        39.935810089111328,
        146.89999389648438,
        39.935810089111328
      ],
      "min": [
        -39.935810089111328,
        -160.0238037109375,
        -39.935810089111328
      ],
      "type": "VEC3"
    },
    {
      "bufferView": 2,
      "byteOffset": 46032,
      "componentType": 5126,
      "count": 1012,
      "max": [
        1,
        0.99944347143173218,
        1
      ],
      "min": [
        -1,
        -0.999595046043396,
        -1
      ],
      "type": "VEC3"
    },
    {
      "bufferView": 3,
      "byteOffset": 22592,
      "componentType": 5126,
      "count": 1012,
      "max": [
        0,
        0,
        0,
        1
      ],
      "min": [
        0,
        0,
        0,
        1
      ],
      "type": "VEC4"
    },
    {
      "bufferView": 0,
      "byteOffset": 27384,
      "componentType": 5125,
      "count": 5634,
      "max": [
        1011
      ],
      "min": [
        0
      ],
      "type": "SCALAR"
    },
    {
      "bufferView": 2,
      "byteOffset": 58176,
      "componentType": 5126,
      "count": 28,
      "max": [
        30.056308746337891,
        23.327939987182617,
        42.520820617675781
      ],
      "min": [
        -30.05632209777832,
        -80.241912841796875,
        29.818635940551758
      ],
      "type": "VEC3"
    },
    {
      "bufferView": 2,
      "byteOffset": 58512,
      "componentType": 5126,
      "count": 28,
      "max": [
        0.60876107215881348,
        0.010546472854912281,
        0.99999994039535522
      ],
      "min": [
        -0.60876160860061646,
        -0.0024180156178772449,
        0.79330980777740479
      ],
      "type": "VEC3"
    },
    {
      "bufferView": 3,
      "byteOffset": 38784,
      "componentType": 5126,
      "count": 28,
      "max": [
        0,
        0,
        0,
        1
      ],
      "min": [
        0,
        0,
        0,
        1
      ],
      "type": "VEC4"
    },
    {
      "bufferView": 1,
      "componentType": 5126,
      "count": 28,
      "max": [
        0,
        0
      ],
      "min": [
        0,
        0
      ],
      "type": "VEC2"
    },
    {
      "bufferView": 0,
      "byteOffset": 49920,
      "componentType": 5125,
      "count": 108,
      "max": [
        27
      ],
      "min": [
        0
      ],
      "type": "SCALAR"
    },
    {
      "bufferView": 4,
      "componentType": 5126,
      "count": 1,
      "max": [
        0
      ],
      "min": [
        0
      ],
      "type": "SCALAR"
    },
    {
      "bufferView": 5,
      "componentType": 5126,
      "count": 1,
      "max": [
        -0.21630027890205383,
        0.67191815376281738,
        -0.21731686592102051,
        0.67417621612548828
      ],
      "min": [
        -0.21630027890205383,
        0.67191815376281738,
        -0.21731686592102051,
        0.67417621612548828
      ],
      "type": "VEC4"
    },
    {
      "bufferView": 4,
      "byteOffset": 4,
      "componentType": 5126,
      "count": 1,
      "max": [
        0
      ],
      "min": [
        0
      ],
      "type": "SCALAR"
    },
    {
      "bufferView": 5,
      "byteOffset": 16,
      "componentType": 5126,
      "count": 1,
      "max": [
        0.46193975210189819,
        -0.33141356706619263,
        0.19134171307086945,
        0.80010312795639038
      ],
      "min": [
        0.46193975210189819,
        -0.33141356706619263,
        0.19134171307086945,
        0.80010312795639038
      ],
      "type": "VEC4"
    }
  ],
  "animations": [
    {
      "channels": [
        {
          "sampler": 0,
          "target": {
            "node": 11,
            "path": "rotation"
          }
        },
        {
          "sampler": 1,
          "target": {
            "node": 15,
            "path": "rotation"
          }
        }
      ],
      "name": "Take 001",
      "samplers": [
        {
          "input": 21,
          "interpolation": "LINEAR",
          "output": 22
        },
        {
          "input": 23,
          "interpolation": "LINEAR",
          "output": 24
        }
      ]
    }
  ],
  "asset": {
    "extras": {
      "author": "DRSJir (https://sketchfab.com/DRSJir)",
      "license": "CC-BY-4.0 (http://creativecommons.org/licenses/by/4.0/)",
      "source": "https://sketchfab.com/models/c63510b103fc4954ad36a84d7e26e7ec",
      "title": "Bottle wine"
    },
    "generator": "Sketchfab-3.20.7",
    "version": "2.0"
  },
  "bufferViews": [
    {
      "buffer": 0,
      "byteLength": 50352,
      "byteOffset": 0,
      "name": "floatBufferViews",
      "target": 34963
    },
    {
      "buffer": 0,
      "byteLength": 224,
      "byteOffset": 50352,
      "byteStride": 8,
      "name": "floatBufferViews",
      "target": 34962
    },
    {
      "buffer": 0,
      "byteLength": 58848,
      "byteOffset": 50576,
      "byteStride": 12,
      "name": "floatBufferViews",
      "target": 34962
    },
    {
      "buffer": 0,
      "byteLength": 39232,
      "byteOffset": 109424,
      "byteStride": 16,
      "name": "floatBufferViews",
      "target": 34962
    },
    {
      "buffer": 0,
      "byteLength": 8,
      "byteOffset": 148656,
      "name": "floatBufferViews"
    },
    {
      "buffer": 0,
      "byteLength": 32,
      "byteOffset": 148664,
      "byteStride": 16,
      "name": "floatBufferViews"
    }
  ],
  "buffers": [
    {
      "byteLength": 148696,
      "uri": "scene.bin"
    }
  ],
  "images": [
    {
      "uri": "textures/Etiqueta_baseColor.jpg"
    }
  ],
  "materials": [
    {
      "doubleSided": true,
      "emissiveFactor": [
        0,
        0,
        0
      ],
      "name": "Cosa_de_arriba",
      "pbrMetallicRoughness": {
        "baseColorFactor": [
          0.18329000000000001,
          0,
          0,
          1
        ],
        "metallicFactor": 0,
        "roughnessFactor": 0.59999999999999998
      }
    },
    {
      "alphaMode": "BLEND",
      "doubleSided": true,
      "name": "Botella",
      "pbrMetallicRoughness": {
        "baseColorFactor": [
          0.0053880339999999999,
          0.0110112305,
          0.0025458328999999999,
          0.9677972561
        ],
        "metallicFactor": 0,
        "roughnessFactor": 0.068788109799999997
      }
    },
    {
      "doubleSided": true,
      "emissiveFactor": [
        0,
        0,
        0
      ],
      "name": "Default",
      "pbrMetallicRoughness": {
        "baseColorFactor": [
          0.80000000000000004,
          0.80000000000000004,
          0.80000000000000004,
          1
        ],
        "metallicFactor": 0,
        "roughnessFactor": 0.59999999999999998
      }
    },
    {
      "doubleSided": true,
      "emissiveFactor": [
        0,
        0,
        0
      ],
      "name": "Liquido",
      "pbrMetallicRoughness": {
        "baseColorFactor": [
          0.072784799999999997,
          0,
          0.0017623999999999999,
          1
        ],
        "metallicFactor": 0,
        "roughnessFactor": 0.59999999999999998
      }
    },
    {
      "doubleSided": true,
      "emissiveFactor": [
        0,
        0,
        0
      ],
      "name": "Etiqueta",
      "pbrMetallicRoughness": {
        "baseColorFactor": [
          1,
          1,
          1,
          1
        ],
        "baseColorTexture": {
          "index": 0,
          "texCoord": 0
        },
        "metallicFactor": 0,
        "roughnessFactor": 0.59999999999999998
      }
    }
  ],
  "meshes": [
    {
      "name": "Mesh_Cosa de arriba_0",
      "primitives": [
        {
          "attributes": {
            "NORMAL": 1,
            "POSITION": 0,
            "TANGENT": 2
          },
          "indices": 3,
          "material": 0,
          "mode": 4
        }
      ]
    },
    {
      "name": "Mesh_Botella_0",
      "primitives": [
        {
          "attributes": {
            "NORMAL": 5,
            "POSITION": 4,
            "TANGENT": 6
          },
          "indices": 7,
          "material": 1,
          "mode": 4
        }
      ]
    },
    {
      "name": "Mesh_Default_0",
      "primitives": [
        {
          "attributes": {
            "NORMAL": 9,
            "POSITION": 8,
            "TANGENT": 10
          },
          "indices": 11,
          "material": 2,
          "mode": 4
        }
      ]
    },
    {
      "name": "Mesh_Liquido_0",
      "primitives": [
        {
          "attributes": {
            "NORMAL": 13,
            "POSITION": 12,
            "TANGENT": 14
          },
          "indices": 15,
          "material": 3,
          "mode": 4
        }
      ]
    },
    {
      "name": "Mesh_Etiqueta_0",
      "primitives": [
        {
          "attributes": {
            "NORMAL": 17,
            "POSITION": 16,
            "TANGENT": 18,
            "TEXCOORD_0": 19
          },
          "indices": 20,
          "material": 4,
          "mode": 4
        }
      ]
    }
  ],
  "nodes": [
    {
      "children": [
        1
      ],
      "name": "RootNode (gltf orientation matrix)",
      "rotation": [
        -0.70710678118654746,
        -0,
        -0,
        0.70710678118654757
      ]
    },
    {
      "children": [
        2
      ],
      "name": "RootNode (model correction matrix)"
    },
    {
      "children": [
        3
      ],
      "matrix": [
        1,
        0,
        0,
        0,
        0,
        0,
        1,
        0,
        0,
        -1,
        0,
        0,
        0,
        0,
        0,
        1
      ],
      "name": "e554b8b25be54526bf6c8a6b22f8499f.fbx"
    },
    {
      "children": [
        4
      ],
      "name": ""
    },
    {
      "children": [
        5,
        11,
        13,
        15
      ],
      "name": "RootNode"
    },
    {
      "children": [
        6,
        7,
        8,
        9,
        10
      ],
      "name": "Mesh",
      "translation": [
        0,
        166.92999267578125,
        0
      ]
    },
    {
      "mesh": 0,
      "name": "Mesh_Cosa de arriba_0"
    },
    {
      "mesh": 1,
      "name": "Mesh_Botella_0"
    },
    {
      "mesh": 2,
      "name": "Mesh_Default_0"
    },
    {
      "mesh": 3,
      "name": "Mesh_Liquido_0"
    },
    {
      "mesh": 4,
      "name": "Mesh_Etiqueta_0"
    },
    {
      "children": [
        12
      ],
      "name": "Camera",
      "rotation": [
        -0.21630029380321503,
        0.67191815376281738,
        -0.21731686592102051,
        0.67417621612548828
      ],
      "translation": [
        -5.7473306655883789,
        603.32684326171875,
        606.48712158203125
      ]
    },
    {
      "name": ""
    },
    {
      "children": [
        14
      ],
      "name": "Texture Group"
    },
    {
      "name": "Old Glass.lxp (3)"
    },
    {
      "children": [
        16
      ],
      "name": "Directional Light",
      "rotation": [
        0.46193975210189819,
        -0.33141359686851501,
        0.19134171307086945,
        0.80010312795639038
      ],
      "translation": [
        -200,
        200,
        200
      ]
    },
    {
      "children": [
        17
      ],
      "matrix": [
        1,
        0,
        0,
        0,
        0,
        2.2204460492503131e-16,
        1,
        0,
        0,
        -1,
        2.2204460492503131e-16,
        0,
        0,
        0,
        0,
        1
      ],
      "name": ""
    },
    {
      "name": ""
    }
  ],
  "samplers": [
    {
      "magFilter": 9729,
      "minFilter": 9987,
      "wrapS": 10497,
      "wrapT": 33071
    }
  ],
  "scene": 0,
  "scenes": [
    {
      "name": "OSG_Scene",
      "nodes": [
        0
      ]
    }
  ],
  "textures": [
    {
      "sampler": 0,
      "source": 0
    }
  ]
}

