{
  "accessors": [
    {
      "bufferView": 2,
      "componentType": 5126,
      "count": 88,
      "max": [
        0.10765399783849716,
        1,
        0.095280401408672333
      ],
      "min": [
        -0.10791700333356857,
        0.84127002954483032,
        -0.1139409989118576
      ],
      "type": "VEC3"
    },
    {
      "bufferView": 2,
      "byteOffset": 1056,
      "componentType": 5126,
      "count": 88,
      "max": [
        0.90973997116088867,
        -0.12790903449058533,
        0.92242652177810669
      ],
      "min": [
        -0.90973997116088867,
        -0.9604225754737854,
        -0.88464075326919556
      ],
      "type": "VEC3"
    },
    {
      "bufferView": 3,
      "componentType": 5126,
      "count": 88,
      "max": [
        0.80893898010253906,
        0.98273700475692749,
        0.98095399141311646,
        1
      ],
      "min": [
        -0.62137997150421143,
        -0.89501500129699707,
        -0.094277702271938324,
        1
      ],
      "type": "VEC4"
    },
    {
      "bufferView": 1,
      "componentType": 5126,
      "count": 88,
      "max": [
        0.43042400479316711,
        0.52002298831939697
      ],
      "min": [
        0.14366400241851807,
        0.27283400297164917
      ],
      "type": "VEC2"
    },
    {
      "bufferView": 0,
      "componentType": 5125,
      "count": 120,
      "max": [
        87
      ],
      "min": [
        0
      ],
      "type": "SCALAR"
    },
    {
      "bufferView": 2,
      "byteOffset": 2112,
      "componentType": 5126,
      "count": 119,
      "max": [
        0.017889199778437614,
        0.86326801776885986,
        0.018136000260710716
      ],
      "min": [
        -0.018437100574374199,
        0.51577097177505493,
        -0.019874900579452515
      ],
      "type": "VEC3"
    },
    {
      "bufferView": 2,
      "byteOffset": 3540,
      "componentType": 5126,
      "count": 119,
      "max": [
        0.99972087144851685,
        0.36052390933036804,
        0.96622949838638306
      ],
      "min": [
        -0.99207651615142822,
        -0.36052608489990234,
        -0.98750263452529907
      ],
      "type": "VEC3"
    },
    {
      "bufferView": 3,
      "byteOffset": 1408,
      "componentType": 5126,
      "count": 119,
      "max": [
        0.99963599443435669,
        0.26589798927307129,
        0.99960702657699585,
        1
      ],
      "min": [
        -0.99981802701950073,
        -0.4850429892539978,
        -0.99895602464675903,
        1
      ],
      "type": "VEC4"
    },
    {
      "bufferView": 1,
      "byteOffset": 704,
      "componentType": 5126,
      "count": 119,
      "max": [
        0.94810599088668823,
        0.77025997638702393
      ],
      "min": [
        0.72940200567245483,
        0.0019531199941411614
      ],
      "type": "VEC2"
    },
    {
      "bufferView": 0,
      "byteOffset": 480,
      "componentType": 5125,
      "count": 288,
      "max": [
        118
      ],
      "min": [
        0
      ],
      "type": "SCALAR"
    },
    {
      "bufferView": 2,
      "byteOffset": 4968,
      "componentType": 5126,
      "count": 133,
      "max": [
        0.019314799457788467,
        0.53029102087020874,
        0.017423700541257858
      ],
      "min": [
        -0.018547400832176208,
        0.22441500425338745,
        -0.019874900579452515
      ],
      "type": "VEC3"
    },
    {
      "bufferView": 2,
      "byteOffset": 6564,
      "componentType": 5126,
      "count": 133,
      "max": [
        0.96104937791824341,
        0.36052390933036804,
        1
      ],
      "min": [
        -0.98787462711334229,
        -0.36052596569061279,
        -0.97350925207138062
      ],
      "type": "VEC3"
    },
    {
      "bufferView": 3,
      "byteOffset": 3312,
      "componentType": 5126,
      "count": 133,
      "max": [
        0.99884802103042603,
        0.37990999221801758,
        0.99801099300384521,
        1
      ],
      "min": [
        -0.99888801574707031,
        -0.48796701431274414,
        -0.99725097417831421,
        1
      ],
      "type": "VEC4"
    },
    {
      "bufferView": 1,
      "byteOffset": 1656,
      "componentType": 5126,
      "count": 133,
      "max": [
        0.8934900164604187,
        0.6677740216255188
      ],
      "min": [
        0.4963659942150116,
        0.0019531199941411614
      ],
      "type": "VEC2"
    },
    {
      "bufferView": 0,
      "byteOffset": 1632,
      "componentType": 5125,
      "count": 315,
      "max": [
        132
      ],
      "min": [
        0
      ],
      "type": "SCALAR"
    },
    {
      "bufferView": 2,
      "byteOffset": 8160,
      "componentType": 5126,
      "count": 2019,
      "max": [
        0.36072799563407898,
        0.23007699847221375,
        0.35960298776626587
      ],
      "min": [
        -0.3602679967880249,
        -1,
        -0.36139300465583801
      ],
      "type": "VEC3"
    },
    {
      "bufferView": 2,
      "byteOffset": 32388,
      "componentType": 5126,
      "count": 2019,
      "max": [
        1,
        1,
        1
      ],
      "min": [
        -1,
        -1,
        -1
      ],
      "type": "VEC3"
    },
    {
      "bufferView": 3,
      "byteOffset": 5440,
      "componentType": 5126,
      "count": 2019,
      "max": [
        0.99990999698638916,
        0.99999898672103882,
        0.99998998641967773,
        1
      ],
      "min": [
        -0.99982601404190063,
        -0.99999898672103882,
        -0.99999099969863892,
        -1
      ],
      "type": "VEC4"
    },
    {
      "bufferView": 1,
      "byteOffset": 2720,
      "componentType": 5126,
      "count": 2019,
      "max": [
        0.99483197927474976,
        0.99590599536895752
      ],
      "min": [
        0.0050665601156651974,
        0.0016702000284567475
      ],
      "type": "VEC2"
    },
    {
      "bufferView": 0,
      "byteOffset": 2892,
      "componentType": 5125,
      "count": 4122,
      "max": [
        2018
      ],
      "min": [
        0
      ],
      "type": "SCALAR"
    },
    {
      "bufferView": 2,
      "byteOffset": 56616,
      "componentType": 5126,
      "count": 536,
      "max": [
        0.49393299221992493,
        -0.31184700131416321,
        0.49393299221992493
      ],
      "min": [
        -0.49393299221992493,
        -0.39131900668144226,
        -0.49393299221992493
      ],
      "type": "VEC3"
    },
    {
      "bufferView": 2,
      "byteOffset": 63048,
      "componentType": 5126,
      "count": 536,
      "max": [
        0.9905206561088562,
        0.93561911582946777,
        1
      ],
      "min": [
        -0.9905206561088562,
        -0.36368489265441895,
        -0.9905206561088562
      ],
      "type": "VEC3"
    },
    {
      "bufferView": 3,
      "byteOffset": 37744,
      "componentType": 5126,
      "count": 536,
      "max": [
        0.99488598108291626,
        0.80907100439071655,
        0.99488598108291626,
        1
      ],
      "min": [
        -0.99488598108291626,
        -0.8505370020866394,
        -0.99488598108291626,
        1
      ],
      "type": "VEC4"
    },
    {
      "bufferView": 1,
      "byteOffset": 18872,
      "componentType": 5126,
      "count": 536,
      "max": [
        0.60609501600265503,
        0.87452501058578491
      ],
      "min": [
        0.35418000817298889,
        0.20280900597572327
      ],
      "type": "VEC2"
    },
    {
      "bufferView": 0,
      "byteOffset": 19380,
      "componentType": 5125,
      "count": 1260,
      "max": [
        535
      ],
      "min": [
        0
      ],
      "type": "SCALAR"
    },
    {
      "bufferView": 2,
      "byteOffset": 69480,
      "componentType": 5126,
      "count": 5672,
      "max": [
        0.54314702749252319,
        -0.38784301280975342,
        0.54314702749252319
      ],
      "min": [
        -0.54314702749252319,
        -0.91360902786254883,
        -0.54314702749252319
      ],
      "type": "VEC3"
    },
    {
      "bufferView": 2,
      "byteOffset": 137544,
      "componentType": 5126,
      "count": 5672,
      "max": [
        1,
        0.99995821714401245,
        1
      ],
      "min": [
        -1,
        -1,
        -1
      ],
      "type": "VEC3"
    },
    {
      "bufferView": 3,
      "byteOffset": 46320,
      "componentType": 5126,
      "count": 5672,
      "max": [
        0.99999898672103882,
        0.93408101797103882,
        0.99999898672103882,
        1
      ],
      "min": [
        -0.99999898672103882,
        -0.94813698530197144,
        -0.99999898672103882,
        1
      ],
      "type": "VEC4"
    },
    {
      "bufferView": 1,
      "byteOffset": 23160,
      "componentType": 5126,
      "count": 5672,
      "max": [
        0.9981200098991394,
        0.94344800710678101
      ],
      "min": [
        0.0019531199941411614,
        0.0019531199941411614
      ],
      "type": "VEC2"
    },
    {
      "bufferView": 0,
      "byteOffset": 24420,
      "componentType": 5125,
      "count": 12480,
      "max": [
        5671
      ],
      "min": [
        0
      ],
      "type": "SCALAR"
    }
  ],
  "asset": {
    "extras": {
      "author": "kellyjrobert (https://sketchfab.com/kellyjrobert)",
      "license": "CC-BY-4.0 (http://creativecommons.org/licenses/by/4.0/)",
      "source": "https://sketchfab.com/models/b002246b01124b239475e4725469c390",
      "title": "chandelier"
    },
    "generator": "Sketchfab-3.19.6",
    "version": "2.0"
  },
  "bufferViews": [
    {
      "buffer": 0,
      "byteLength": 74340,
      "byteOffset": 0,
      "name": "floatBufferViews",
      "target": 34963
    },
    {
      "buffer": 0,
      "byteLength": 68536,
      "byteOffset": 74340,
      "byteStride": 8,
      "name": "floatBufferViews",
      "target": 34962
    },
    {
      "buffer": 0,
      "byteLength": 205608,
      "byteOffset": 142876,
      "byteStride": 12,
      "name": "floatBufferViews",
      "target": 34962
    },
    {
      "buffer": 0,
      "byteLength": 137072,
      "byteOffset": 348484,
      "byteStride": 16,
      "name": "floatBufferViews",
      "target": 34962
    }
  ],
  "buffers": [
    {
      "byteLength": 485556,
      "uri": "scene.bin"
    }
  ],
  "images": [
    {
      "uri": "textures/mat_chandelierMain_metallicRoughness.png"
    },
    {
      "uri": "textures/mat_chandelierMain_normal.jpeg"
    },
    {
      "uri": "textures/mat_chandelierMain_baseColor.jpeg"
    },
    {
      "uri": "textures/mat_chandelierDecor_emissive.jpeg"
    },
    {
      "uri": "textures/mat_chandelierDecor_metallicRoughness.png"
    },
    {
      "uri": "textures/mat_chandelierDecor_normal.jpeg"
    },
    {
      "uri": "textures/mat_chandelierDecor_baseColor.jpeg"
    },
    {
      "uri": "textures/mat_ChandelierFlame_emissive.jpeg"
    },
    {
      "uri": "textures/mat_ChandelierFlame_metallicRoughness.png"
    },
    {
      "uri": "textures/mat_ChandelierFlame_normal.jpeg"
    },
    {
      "uri": "textures/mat_ChandelierFlame_baseColor.jpeg"
    }
  ],
  "materials": [
    {
      "doubleSided": true,
      "emissiveFactor": [
        1,
        1,
        1
      ],
      "emissiveTexture": {
        "index": 3,
        "texCoord": 0
      },
      "name": "mat_chandelierDecor",
      "normalTexture": {
        "index": 5,
        "scale": 1,
        "texCoord": 0
      },
      "occlusionTexture": {
        "index": 4,
        "strength": 1,
        "texCoord": 0
      },
      "pbrMetallicRoughness": {
        "baseColorFactor": [
          1,
          1,
          1,
          1
        ],
        "baseColorTexture": {
          "index": 6,
          "texCoord": 0
        },
        "metallicFactor": 1,
        "metallicRoughnessTexture": {
          "index": 4,
          "texCoord": 0
        },
        "roughnessFactor": 1
      }
    },
    {
      "doubleSided": true,
      "emissiveFactor": [
        1,
        1,
        1
      ],
      "emissiveTexture": {
        "index": 7,
        "texCoord": 0
      },
      "name": "mat_ChandelierFlame",
      "normalTexture": {
        "index": 9,
        "scale": 1,
        "texCoord": 0
      },
      "occlusionTexture": {
        "index": 8,
        "strength": 1,
        "texCoord": 0
      },
      "pbrMetallicRoughness": {
        "baseColorFactor": [
          1,
          1,
          1,
          1
        ],
        "baseColorTexture": {
          "index": 10,
          "texCoord": 0
        },
        "metallicFactor": 1,
        "metallicRoughnessTexture": {
          "index": 8,
          "texCoord": 0
        },
        "roughnessFactor": 1
      }
    },
    {
      "doubleSided": true,
      "emissiveFactor": [
        0,
        0,
        0
      ],
      "name": "mat_chandelierMain",
      "normalTexture": {
        "index": 1,
        "scale": 1,
        "texCoord": 0
      },
      "occlusionTexture": {
        "index": 0,
        "strength": 1,
        "texCoord": 0
      },
      "pbrMetallicRoughness": {
        "baseColorFactor": [
          1,
          1,
          1,
          1
        ],
        "baseColorTexture": {
          "index": 2,
          "texCoord": 0
        },
        "metallicFactor": 1,
        "metallicRoughnessTexture": {
          "index": 0,
          "texCoord": 0
        },
        "roughnessFactor": 1
      }
    }
  ],
  "meshes": [
    {
      "name": "defaultMaterial",
      "primitives": [
        {
          "attributes": {
            "NORMAL": 1,
            "POSITION": 0,
            "TANGENT": 2,
            "TEXCOORD_0": 3
          },
          "indices": 4,
          "material": 0,
          "mode": 4
        }
      ]
    },
    {
      "name": "defaultMaterial",
      "primitives": [
        {
          "attributes": {
            "NORMAL": 6,
            "POSITION": 5,
            "TANGENT": 7,
            "TEXCOORD_0": 8
          },
          "indices": 9,
          "material": 0,
          "mode": 4
        }
      ]
    },
    {
      "name": "defaultMaterial",
      "primitives": [
        {
          "attributes": {
            "NORMAL": 11,
            "POSITION": 10,
            "TANGENT": 12,
            "TEXCOORD_0": 13
          },
          "indices": 14,
          "material": 0,
          "mode": 4
        }
      ]
    },
    {
      "name": "defaultMaterial",
      "primitives": [
        {
          "attributes": {
            "NORMAL": 16,
            "POSITION": 15,
            "TANGENT": 17,
            "TEXCOORD_0": 18
          },
          "indices": 19,
          "material": 2,
          "mode": 4
        }
      ]
    },
    {
      "name": "defaultMaterial",
      "primitives": [
        {
          "attributes": {
            "NORMAL": 21,
            "POSITION": 20,
            "TANGENT": 22,
            "TEXCOORD_0": 23
          },
          "indices": 24,
          "material": 1,
          "mode": 4
        }
      ]
    },
    {
      "name": "defaultMaterial",
      "primitives": [
        {
          "attributes": {
            "NORMAL": 26,
            "POSITION": 25,
            "TANGENT": 27,
            "TEXCOORD_0": 28
          },
          "indices": 29,
          "material": 0,
          "mode": 4
        }
      ]
    }
  ],
  "nodes": [
    {
      "children": [
        1
      ],
      "name": "RootNode (gltf orientation matrix)",
      "rotation": [
        -0.70710678118654746,
        -0,
        -0,
        0.70710678118654757
      ]
    },
    {
      "children": [
        2
      ],
      "name": "RootNode (model correction matrix)"
    },
    {
      "children": [
        3,
        5,
        7,
        9,
        11,
        13
      ],
      "matrix": [
        1,
        0,
        0,
        0,
        0,
        -4.3711390063094768e-08,
        0.999999999999999,
        0,
        0,
        -0.999999999999999,
        -4.3711390063094768e-08,
        0,
        0,
        0,
        0,
        1
      ],
      "name": "Collada visual scene group"
    },
    {
      "children": [
        4
      ],
      "name": "ceilingMount"
    },
    {
      "mesh": 0,
      "name": "defaultMaterial"
    },
    {
      "children": [
        6
      ],
      "name": "link01"
    },
    {
      "mesh": 1,
      "name": "defaultMaterial"
    },
    {
      "children": [
        8
      ],
      "name": "link02"
    },
    {
      "mesh": 2,
      "name": "defaultMaterial"
    },
    {
      "children": [
        10
      ],
      "name": "chandelierFixture"
    },
    {
      "mesh": 3,
      "name": "defaultMaterial"
    },
    {
      "children": [
        12
      ],
      "name": "chandelierFixture"
    },
    {
      "mesh": 4,
      "name": "defaultMaterial"
    },
    {
      "children": [
        14
      ],
      "name": "chandelierFixture"
    },
    {
      "mesh": 5,
      "name": "defaultMaterial"
    }
  ],
  "samplers": [
    {
      "magFilter": 9729,
      "minFilter": 9987,
      "wrapS": 10497,
      "wrapT": 10497
    }
  ],
  "scene": 0,
  "scenes": [
    {
      "name": "OSG_Scene",
      "nodes": [
        0
      ]
    }
  ],
  "textures": [
    {
      "sampler": 0,
      "source": 0
    },
    {
      "sampler": 0,
      "source": 1
    },
    {
      "sampler": 0,
      "source": 2
    },
    {
      "sampler": 0,
      "source": 3
    },
    {
      "sampler": 0,
      "source": 4
    },
    {
      "sampler": 0,
      "source": 5
    },
    {
      "sampler": 0,
      "source": 6
    },
    {
      "sampler": 0,
      "source": 7
    },
    {
      "sampler": 0,
      "source": 8
    },
    {
      "sampler": 0,
      "source": 9
    },
    {
      "sampler": 0,
      "source": 10
    }
  ]
}

