{
  "accessors": [
    {
      "bufferView": 2,
      "componentType": 5126,
      "count": 1154,
      "max": [
        51.812107086181641,
        51.814655303955078,
        227.72068786621094
      ],
      "min": [
        -52.062652587890625,
        -51.814617156982422,
        101.00393676757812
      ],
      "type": "VEC3"
    },
    {
      "bufferView": 2,
      "byteOffset": 13848,
      "componentType": 5126,
      "count": 1154,
      "max": [
        0.9979742169380188,
        0.99565994739532471,
        1
      ],
      "min": [
        -0.99800056219100952,
        -0.99566036462783813,
        -1
      ],
      "type": "VEC3"
    },
    {
      "bufferView": 3,
      "componentType": 5126,
      "count": 1154,
      "max": [
        0.92914038896560669,
        0.30960237979888916,
        0.99552571773529053,
        1
      ],
      "min": [
        -0.91857445240020752,
        -1,
        -0.99525028467178345,
        -1
      ],
      "type": "VEC4"
    },
    {
      "bufferView": 1,
      "componentType": 5126,
      "count": 1154,
      "max": [
        0.99038571119308472,
        0.99038571119308472
      ],
      "min": [
        0.0096143828704953194,
        0.0096143810078501701
      ],
      "type": "VEC2"
    },
    {
      "bufferView": 0,
      "componentType": 5125,
      "count": 6528,
      "max": [
        1153
      ],
      "min": [
        0
      ],
      "type": "SCALAR"
    },
    {
      "bufferView": 2,
      "byteOffset": 27696,
      "componentType": 5126,
      "count": 443,
      "max": [
        50.326934814453125,
        50.332077026367188,
        156.502197265625
      ],
      "min": [
        -50.575672149658203,
        -50.332038879394531,
        102.19768524169922
      ],
      "type": "VEC3"
    },
    {
      "bufferView": 2,
      "byteOffset": 33012,
      "componentType": 5126,
      "count": 443,
      "max": [
        0.9989287257194519,
        0.99926888942718506,
        1
      ],
      "min": [
        -0.99848037958145142,
        -0.99926900863647461,
        -1
      ],
      "type": "VEC3"
    },
    {
      "bufferView": 3,
      "byteOffset": 18464,
      "componentType": 5126,
      "count": 443,
      "max": [
        0.89677393436431885,
        0.098845496773719788,
        0.99904018640518188,
        1
      ],
      "min": [
        -0.88797146081924438,
        -1,
        -0.99909144639968872,
        -1
      ],
      "type": "VEC4"
    },
    {
      "bufferView": 1,
      "byteOffset": 9232,
      "componentType": 5126,
      "count": 443,
      "max": [
        0.99038571119308472,
        0.99038571119308472
      ],
      "min": [
        0.0096143828704953194,
        0.0096143810078501701
      ],
      "type": "VEC2"
    },
    {
      "bufferView": 0,
      "byteOffset": 26112,
      "componentType": 5125,
      "count": 2106,
      "max": [
        442
      ],
      "min": [
        0
      ],
      "type": "SCALAR"
    },
    {
      "bufferView": 2,
      "byteOffset": 38328,
      "componentType": 5126,
      "count": 921,
      "max": [
        39.98052978515625,
        39.980525970458984,
        101.87619781494141
      ],
      "min": [
        -39.980514526367188,
        -39.980522155761719,
        0.95905518531799316
      ],
      "type": "VEC3"
    },
    {
      "bufferView": 2,
      "byteOffset": 49380,
      "componentType": 5126,
      "count": 921,
      "max": [
        0.9999992847442627,
        0.9999992847442627,
        1
      ],
      "min": [
        -0.99999922513961792,
        -0.9999992847442627,
        -1
      ],
      "type": "VEC3"
    },
    {
      "bufferView": 3,
      "byteOffset": 25552,
      "componentType": 5126,
      "count": 921,
      "max": [
        0.94196760654449463,
        0.89821773767471313,
        0.99999916553497314,
        1
      ],
      "min": [
        -0.94990420341491699,
        -1,
        -0.99999892711639404,
        -1
      ],
      "type": "VEC4"
    },
    {
      "bufferView": 1,
      "byteOffset": 12776,
      "componentType": 5126,
      "count": 921,
      "max": [
        0.99950003623962402,
        0.99038565158843994
      ],
      "min": [
        0.00050000002374872565,
        0.00050000002374872565
      ],
      "type": "VEC2"
    },
    {
      "bufferView": 0,
      "byteOffset": 34536,
      "componentType": 5125,
      "count": 3258,
      "max": [
        920
      ],
      "min": [
        0
      ],
      "type": "SCALAR"
    }
  ],
  "asset": {
    "extras": {
      "author": "Anthony Yanez (https://sketchfab.com/paulyanez)",
      "license": "CC-BY-4.0 (http://creativecommons.org/licenses/by/4.0/)",
      "source": "https://sketchfab.com/models/07ad17d4ac40464ca276715dc12d8efa",
      "title": "Wine Glass"
    },
    "generator": "Sketchfab-3.46.2",
    "version": "2.0"
  },
  "bufferViews": [
    {
      "buffer": 0,
      "byteLength": 47568,
      "byteOffset": 0,
      "name": "floatBufferViews",
      "target": 34963
    },
    {
      "buffer": 0,
      "byteLength": 20144,
      "byteOffset": 47568,
      "byteStride": 8,
      "name": "floatBufferViews",
      "target": 34962
    },
    {
      "buffer": 0,
      "byteLength": 60432,
      "byteOffset": 67712,
      "byteStride": 12,
      "name": "floatBufferViews",
      "target": 34962
    },
    {
      "buffer": 0,
      "byteLength": 40288,
      "byteOffset": 128144,
      "byteStride": 16,
      "name": "floatBufferViews",
      "target": 34962
    }
  ],
  "buffers": [
    {
      "byteLength": 168432,
      "uri": "scene.bin"
    }
  ],
  "images": [
    {
      "uri": "textures/01_-_Default_baseColor.jpeg"
    },
    {
      "uri": "textures/07_-_Default_baseColor.jpeg"
    },
    {
      "uri": "textures/03_-_Default_baseColor.jpeg"
    }
  ],
  "materials": [
    {
      "alphaMode": "BLEND",
      "doubleSided": true,
      "emissiveFactor": [
        0,
        0,
        0
      ],
      "name": "03_-_Default",
      "pbrMetallicRoughness": {
        "baseColorFactor": [
          1,
          1,
          1,
          0.10000000000000001
        ],
        "baseColorTexture": {
          "index": 2,
          "texCoord": 0
        },
        "metallicFactor": 1,
        "roughnessFactor": 0.099999999999999978
      }
    },
    {
      "doubleSided": true,
      "emissiveFactor": [
        0,
        0,
        0
      ],
      "name": "07_-_Default",
      "pbrMetallicRoughness": {
        "baseColorFactor": [
          1,
          1,
          1,
          1
        ],
        "baseColorTexture": {
          "index": 1,
          "texCoord": 0
        },
        "metallicFactor": 1,
        "roughnessFactor": 0
      }
    },
    {
      "alphaMode": "BLEND",
      "doubleSided": true,
      "emissiveFactor": [
        0,
        0,
        0
      ],
      "name": "01_-_Default",
      "pbrMetallicRoughness": {
        "baseColorFactor": [
          1,
          1,
          1,
          0.95335744219999996
        ],
        "baseColorTexture": {
          "index": 0,
          "texCoord": 0
        },
        "metallicFactor": 1,
        "roughnessFactor": 0.099999999999999978
      }
    }
  ],
  "meshes": [
    {
      "name": "Wine Glass_03 - Default_0",
      "primitives": [
        {
          "attributes": {
            "NORMAL": 1,
            "POSITION": 0,
            "TANGENT": 2,
            "TEXCOORD_0": 3
          },
          "indices": 4,
          "material": 0,
          "mode": 4
        }
      ]
    },
    {
      "name": "Wine Glass_07 - Default_0",
      "primitives": [
        {
          "attributes": {
            "NORMAL": 6,
            "POSITION": 5,
            "TANGENT": 7,
            "TEXCOORD_0": 8
          },
          "indices": 9,
          "material": 1,
          "mode": 4
        }
      ]
    },
    {
      "name": "Wine Glass_01 - Default_0",
      "primitives": [
        {
          "attributes": {
            "NORMAL": 11,
            "POSITION": 10,
            "TANGENT": 12,
            "TEXCOORD_0": 13
          },
          "indices": 14,
          "material": 2,
          "mode": 4
        }
      ]
    }
  ],
  "nodes": [
    {
      "children": [
        1
      ],
      "name": "RootNode (gltf orientation matrix)",
      "rotation": [
        -0.70710678118654746,
        -0,
        -0,
        0.70710678118654757
      ]
    },
    {
      "children": [
        2
      ],
      "name": "RootNode (model correction matrix)"
    },
    {
      "children": [
        3
      ],
      "matrix": [
        1,
        0,
        0,
        0,
        0,
        0,
        1,
        0,
        0,
        -1,
        0,
        0,
        0,
        0,
        0,
        1
      ],
      "name": "Wine Glass.FBX"
    },
    {
      "children": [
        4
      ],
      "name": "RootNode"
    },
    {
      "children": [
        5,
        6,
        7
      ],
      "matrix": [
        1,
        0,
        0,
        0,
        0,
        2.2204460492503131e-16,
        -1,
        0,
        0,
        1,
        2.2204460492503131e-16,
        0,
        -0.52576160430908203,
        0.13095523416996002,
        0.67598336935043335,
        1
      ],
      "name": "Wine Glass"
    },
    {
      "mesh": 0,
      "name": "Wine Glass_03 - Default_0"
    },
    {
      "mesh": 1,
      "name": "Wine Glass_07 - Default_0"
    },
    {
      "mesh": 2,
      "name": "Wine Glass_01 - Default_0"
    }
  ],
  "samplers": [
    {
      "magFilter": 9729,
      "minFilter": 9987,
      "wrapS": 10497,
      "wrapT": 10497
    }
  ],
  "scene": 0,
  "scenes": [
    {
      "name": "OSG_Scene",
      "nodes": [
        0
      ]
    }
  ],
  "textures": [
    {
      "sampler": 0,
      "source": 0
    },
    {
      "sampler": 0,
      "source": 1
    },
    {
      "sampler": 0,
      "source": 2
    }
  ]
}

